# xmcd
#
# Track frame offsets: 
#        150
#        7010
#        22443
#        39240
#        54176
#        70297
#        85418
#        100160
#        110406
#        126514
#        142172
#        151441
#
# Disc length: 2216 seconds
#
# Revision: 0
# Processed by: cddbd v1.5.2PL0 Copyright (c) Steve Scherf et al.
# Submitted via: ExactAudioCopy v1.0b4
#
DISCID=a908a60c
DTITLE=Various Artist - Blues From The Fields Into The Town Vol 2 (LP
DTITLE=)
DYEAR=1900
DGENRE=Blues
TTITLE0=Leadbelly - Leadbelly - Noted Rider
TTITLE1=John Lee Hooker - John Lee Hooker - I Bought You A Brand New H
TTITLE1=ome
TTITLE2=John Lee Hooker - John Lee Hooker - I Believe I'll Lose My Min
TTITLE2=d
TTITLE3=Brownie McGhee and Sonny Terry - Brownie McGhee and Sonny Terry - 
TTITLE3=Worried Life Blues
TTITLE4=Brownie McGhee and Sonny Terry - Brownie McGhee and Sonny Terry - 
TTITLE4=Goin' Down Slow'
TTITLE5=Blind John Davis - Blind John Davis - C C Rider
TTITLE6=Luther Johnson - Luther Johnson - Love'n' Trouble
TTITLE7=Luther Johnson - Luther Johnson - Love Without Jealousy
TTITLE8=Memphis Slim - Memphis Slim - Thsi Is A Good Time To Write A S
TTITLE8=ong
TTITLE9=Memphis Slim - Memphis Slim - Three Women Blues
TTITLE10=Muddy Waters - Muddy Waters - Excuse Me Baby
TTITLE11=Muddy Waters - Muddy Waters - Mud In Your Ear
EXTD=
EXTT0=
EXTT1=
EXTT2=
EXTT3=
EXTT4=
EXTT5=
EXTT6=
EXTT7=
EXTT8=
EXTT9=
EXTT10=
EXTT11=
PLAYORDER=
